<?xml version="1.0" encoding="utf-8"?>
<!-- Generator: Adobe Illustrator 15.0.0, SVG Export Plug-In . SVG Version: 6.00 Build 0)  -->
<!DOCTYPE svg PUBLIC "-//W3C//DTD SVG 1.1//EN" "http://www.w3.org/Graphics/SVG/1.1/DTD/svg11.dtd">
<svg version="1.1" xmlns="http://www.w3.org/2000/svg" xmlns:xlink="http://www.w3.org/1999/xlink" x="0px" y="0px" width="30px"
	 height="30px" viewBox="0 0 30 30" enable-background="new 0 0 30 30" xml:space="preserve">
<g id="DO_NOT_EDIT_-_BOUNDING_BOX">
	<rect id="BOUNDING_BOX" fill="none" width="30" height="30"/>
</g>
<g id="PLACE_YOUR_GRAPHIC_HERE">
	<path opacity="0.3" d="m 21.5,5 -2,0 c -0.553,0 -1,0.447 -1,1 l 0,6.456 L 8.842,5.115 C 8.705,5.038 8.553,5 8.4,5 8.244,5 8.086,5.04 7.945,5.122 7.67,5.286 7.5,5.579 7.5,5.898 l 0,16.204 c 0,0.319 0.17,0.614 0.445,0.776 C 8.086,22.962 8.244,23 8.4,23 8.55,23 8.705,22.962 8.841,22.885 L 18.5,15.544 18.5,22 c 0,0.553 0.447,1 1,1 l 2,0 c 0.553,0 1,-0.447 1,-1 l 0,-16 c 0,-0.553 -0.447,-1 -1,-1 z"/>
	<path opacity="0.15" d="m 19.5,25 c -1.103,0 -2,-0.897 -2,-2 l 0,-4.439 -8.053,6.12 C 9.411,24.708 9.373,24.734 9.333,24.756 9.05,24.915 8.728,25 8.4,25 8.056,25 7.721,24.909 7.432,24.736 6.859,24.399 6.5,23.771 6.5,23.102 L 6.5,6.898 C 6.5,6.232 6.858,5.606 7.434,5.263 7.731,5.089 8.063,5 8.4,5 8.727,5 9.049,5.084 9.333,5.244 9.373,5.266 9.411,5.291 9.447,5.319 L 17.5,11.44 17.5,7 c 0,-1.103 0.897,-2 2,-2 l 2,0 c 1.103,0 2,0.897 2,2 l 0,16 c 0,1.103 -0.897,2 -2,2 z"/>
	<path opacity="0.15" d="m 21.5,6 -2,0 c -0.553,0 -1,0.447 -1,1 l 0,6.456 L 8.842,6.115 C 8.705,6.038 8.553,6 8.4,6 8.244,6 8.086,6.04 7.945,6.122 7.67,6.286 7.5,6.579 7.5,6.898 l 0,16.204 c 0,0.319 0.17,0.614 0.445,0.776 C 8.086,23.962 8.244,24 8.4,24 8.55,24 8.705,23.962 8.841,23.885 L 18.5,16.544 18.5,23 c 0,0.553 0.447,1 1,1 l 2,0 c 0.553,0 1,-0.447 1,-1 l 0,-16 c 0,-0.553 -0.447,-1 -1,-1 z"/>
	<path fill="#FFFFFF" d="m 21.5,6 -2,0 c -0.553,0 -1,0.447 -1,1 l 0,6.456 L 8.842,6.115 C 8.705,6.038 8.553,6 8.4,6 8.244,6 8.086,6.04 7.945,6.122 7.67,6.286 7.5,6.579 7.5,6.898 l 0,16.204 c 0,0.319 0.17,0.614 0.445,0.776 C 8.086,23.962 8.244,24 8.4,24 8.55,24 8.705,23.962 8.841,23.885 L 18.5,16.544 18.5,23 c 0,0.553 0.447,1 1,1 l 2,0 c 0.553,0 1,-0.447 1,-1 l 0,-16 c 0,-0.553 -0.447,-1 -1,-1 z"/>
</g>
</svg>
