<?xml version="1.0" encoding="UTF-8"?>

<svg xmlns="http://www.w3.org/2000/svg" version="1.1" baseProfile="tiny" viewBox="0 0 50 50">

  <defs>
    <linearGradient id="linearGradient1" gradientUnits="userSpaceOnUse" x1="25" y1="0" x2="25" y2="50">
      <stop stop-color="#808080" offset="0"/>
      <stop stop-color="#505050" offset="1"/>
    </linearGradient>
  </defs>
  
  <path d="m 10,0 30,0 c 5,0 10,5 10,10 l 0,30 c 0,5 -5,10 -10,10 L 10,50 C 5,50 0,45 0,40 L 0,10 C 0,5 5,0 10,0 z"
     fill="url(#linearGradient1)" />
	 
  <path d="M 10.59375 1 C 5.79375 1 1 5.79375 1 10.59375 L 1 25 L 49 25 L 49 10.59375 C 49 5.79375 44.20625 1 39.40625 1 L 10.59375 1 z"
     fill="#ffffff" fill-opacity="0.2" />

</svg>
