<?xml version="1.0" encoding="UTF-8"?>

<svg xmlns="http://www.w3.org/2000/svg" version="1.1" baseProfile="tiny" viewBox="0 0 50 50">

  <defs>
    <linearGradient id="linearGradient1" gradientUnits="userSpaceOnUse" x1="25" y1="0" x2="25" y2="50">
      <stop stop-color="#000000" stop-opacity="1" offset="0"/>
      <stop stop-color="#505050" stop-opacity="1" offset="1"/>
    </linearGradient>
	
    <linearGradient id="linearGradient2" gradientUnits="userSpaceOnUse" x1="25" y1="0" x2="25" y2="50">
      <stop stop-color="#000000" stop-opacity="0" offset="0"/>
      <stop stop-color="#000000" stop-opacity="0.5" offset="0.5"/>
      <stop stop-color="#009ead" stop-opacity="1" offset="1"/>
    </linearGradient>
  </defs>
  
  <path d="m 10,0 30,0 c 5,0 10,5 10,10 l 0,30 c 0,5 -5,10 -10,10 L 10,50 C 5,50 0,45 0,40 L 0,10 C 0,5 5,0 10,0 z"
     fill="url(#linearGradient1)" />

  <path d="M 10.28125,0 C 7.6668706,0 5.1340122,1.3034877 3.21875,3.21875 1.3034878,5.1340123 0,7.666871 0,10.28125 l 0,29.4375 c 0,2.61438 1.3034878,5.147239 3.21875,7.0625 C 5.1340122,48.696511 7.6668707,50 10.28125,50 l 29.4375,0 c 2.614379,0 5.147238,-1.303489 7.0625,-3.21875 C 48.696512,44.865989 50,42.33313 50,39.71875 l 0,-29.4375 C 50,7.6668711 48.696512,5.1340123 46.78125,3.21875 44.865988,1.3034877 42.333129,0 39.71875,0 l -29.4375,0 z m 0,0.96875 29.4375,0 c 2.287581,0 4.613792,1.1762915 6.375,2.9375 1.761208,1.7612085 2.9375,4.0874184 2.9375,6.375 l 0,29.4375 c 0,2.287582 -1.176292,4.613792 -2.9375,6.375 -1.761208,1.761208 -4.087419,2.9375 -6.375,2.9375 l -29.4375,0 c -2.2875821,0 -4.6137916,-1.176292 -6.375,-2.9375 -1.7612084,-1.761208 -2.9375,-4.087418 -2.9375,-6.375 l 0,-29.4375 c 0,-2.2875815 1.1762916,-4.6137915 2.9375,-6.375 1.7612084,-1.7612085 4.087418,-2.9375 6.375,-2.9375 z"
     fill="url(#linearGradient2)" />

</svg>
