<?xml version="1.0" encoding="UTF-8"?>

<svg xmlns="http://www.w3.org/2000/svg" version="1.1" baseProfile="tiny" viewBox="6 6 84 84">

  <defs>
    <linearGradient id="linearGradient0" x1="48" y1="20" x2="48" y2="76" gradientUnits="userSpaceOnUse">
      <stop offset="0" stop-color="#ffffff"/>
      <stop offset="1" stop-color="#bbbbbb"/>
    </linearGradient>

    <linearGradient id="linearGradient1" x1="48" y1="8" x2="48" y2="88" gradientUnits="userSpaceOnUse">
      <stop offset="0" stop-color="#009ead"/>
      <stop offset="1" stop-color="#024a73"/>
    </linearGradient>
  
    <linearGradient id="linearGradient2" x1="48" y1="8" x2="48" y2="88" gradientUnits="userSpaceOnUse">
      <stop offset="0.0364" stop-color="#4f5c85"/>
      <stop offset="0.3366" stop-color="#3f5c75"/>
      <stop offset="0.9874" stop-color="#2f4c65"/>
      <stop offset="1" stop-color="#1f2c45"/>
    </linearGradient>	
  </defs>
  
  <path style="opacity:0.4" d="m 88.023,49 c 0,29.633 -10.364,40 -40,40 -29.635,0 -40,-10.367 -40,-40 0,-29.634 10.366,-40 40,-40 29.636,0 40,10.365 40,40 z"/>
  <path style="opacity:0.25;fill:url(#linearGradient2)" d="M 48,8 C 18.365,8 8,18.365 8,48 8,77.633 18.365,88 48,88 77.637,88 88,77.633 88,48 88,18.365 77.637,8 48,8 z m 0,79.023 C 18.842,87.023 9,77.176 9,48 9,18.824 18.842,8.977 48,8.977 77.158,8.977 87,18.824 87,48 87,77.176 77.158,87.023 48,87.023 z"/>
  <path style="fill:url(#linearGradient1);fill-opacity:1;fill-rule:evenodd" d="m 8,47.989 c 0,29.633 10.365,40 40,40 29.637,0 40,-10.367 40,-40 C 88,19.004 78.074,8.459 49.909,8.01 H 46.092 C 17.928,8.459 8,19.004 8,47.989 z"/>

  <path fill="#000000" opacity="0.05" d="m 48,20 -11,11 7,0 0,4 -5,0 c 0,0 -1.93934,-0.06066 -3,1 -1.06066,1.06066 -1,3 -1,3 l 0,5 -4,0 0,-7 -11,11 11,11 0,-7 4,0 0,5 c 0,0 -0.06066,1.93934 1,3 1.06066,1.06066 4,1 4,1 l 4,0 0,4 -7,0 11,11 11,-11 -7,0 0,-4 5,0 c 0,0 1.93934,0.06066 3,-1 1.06066,-1.06066 1,-3 1,-3 l 0,-5 4,0 0,7 11,-11 -11,-11 0,7 -4,0 0,-5 c 0,0 0.06066,-1.93934 -1,-3 -1.06066,-1.06066 -3,-1 -3,-1 l -5,0 0,-4 7,0 z"/>
  <path fill="#000000" opacity="0.5" d="m 48,22 -9,9 6,0 0,6 -5,0 c 0,0 -1.93934,-0.06066 -3,1 -1.06066,1.06066 -1,3 -1,3 l 0,5 -6,0 0,-6 -9,9 9,9 0,-6 6,0 0,5 c 0,0 -0.06066,1.93934 1,3 1.06066,1.06066 3,1 3,1 l 5,0 0,5.9995 -6,0 9,9 9,-9 -6,0 0,-5.9995 5,0 c 0,0 1.93934,0.06066 3,-1 1.06066,-1.06066 1,-3 1,-3 l 0,-5 6,-5e-4 0,6 9,-9 -9,-9 0,6 -6,5e-4 0,-5 c 0,0 0.06066,-1.93934 -1,-3 -1.06066,-1.06066 -3,-1 -3,-1 l -5,0 0,-6 6,0 z"/>
  <path fill="url(#linearGradient0)" d="m 48,21 -9,9 6,0 0,6 -5,0 c 0,0 -1.93934,-0.06066 -3,1 -1.06066,1.06066 -1,3 -1,3 l 0,5 -6,0 0,-6 -9,9 9,9 0,-6 6,0 0,5 c 0,0 -0.06066,1.93934 1,3 1.06066,1.06066 3,1 3,1 l 5,0 0,5.9995 -6,0 9,9 9,-9 -6,0 0,-5.9995 5,0 c 0,0 1.93934,0.06066 3,-1 1.06066,-1.06066 1,-3 1,-3 l 0,-5 6,-5e-4 0,6 9,-9 -9,-9 0,6 -6,5e-4 0,-5 c 0,0 0.06066,-1.93934 -1,-3 -1.06066,-1.06066 -3,-1 -3,-1 l -5,0 0,-6 6,0 z"/>
  
</svg>
