<?xml version="1.0" encoding="utf-8"?>
<!-- Generator: Adobe Illustrator 15.0.0, SVG Export Plug-In . SVG Version: 6.00 Build 0)  -->
<!DOCTYPE svg PUBLIC "-//W3C//DTD SVG 1.1//EN" "http://www.w3.org/Graphics/SVG/1.1/DTD/svg11.dtd">
<svg version="1.1" xmlns="http://www.w3.org/2000/svg" xmlns:xlink="http://www.w3.org/1999/xlink" x="0px" y="0px" width="30px"
	 height="30px" viewBox="0 0 30 30" enable-background="new 0 0 30 30" xml:space="preserve">
<g id="DO_NOT_EDIT_-_BOUNDING_BOX">
	<rect id="BOUNDING_BOX" fill="none" width="30" height="30"/>
</g>
<g id="PLACE_YOUR_GRAPHIC_HERE">

<path opacity="0.15" fill="none" d="m 10.035673,14.739281 c 0.09759,-2.563961 2.41587,-4.7946982 4.995353,-4.716219 2.667694,-0.040908 5.045734,2.366227 4.942346,5.042381 0.04865,2.780917 -2.610706,5.194248 -5.375035,4.882863 -2.615308,-0.165549 -4.7295011,-2.600058 -4.562664,-5.209025 z m 1.450937,1.306241 c 0.560278,2.018622 2.994305,3.195843 4.916427,2.338635 2.018191,-0.758876 2.902528,-3.428702 1.754992,-5.249168 -1.098933,-2.039012 -4.186247,-2.40961 -5.755286,-0.721238 -0.976683,0.93331 -1.227989,2.356453 -0.916133,3.631771 z"/>

<path opacity="0.15" fill="none" d="m 18.332483,18.69737 c -1.881999,1.743989 -5.098642,1.682087 -6.867119,-0.197377 -1.9152702,-1.857418 -1.8946969,-5.241048 0.07074,-7.060268 1.932002,-2.0008098 5.518936,-1.8268402 7.253429,0.348018 1.732242,1.966363 1.50574,5.18278 -0.457046,6.909627 z m -0.102316,-1.949619 c 1.031206,-1.823558 0.142509,-4.377096 -1.822775,-5.130103 -1.963682,-0.89047 -4.476855,0.372061 -4.952688,2.470755 -0.664735,2.218863 1.256273,4.663976 3.55961,4.579594 1.350569,0.03067 2.534586,-0.797944 3.215853,-1.920246 z"/>

<path opacity="0.15" fill="none" d="m 11.306455,18.334067 c -1.7439896,-1.881998 -1.6820867,-5.098641 0.197377,-6.867118 1.857418,-1.9152702 5.241048,-1.8946971 7.060268,0.07074 2.00081,1.932002 1.82684,5.518936 -0.348018,7.253429 -1.966362,1.732241 -5.182779,1.505742 -6.909627,-0.457047 z m 1.949619,-0.102315 c 1.823558,1.031205 4.377096,0.142509 5.130103,-1.822775 0.89047,-1.963682 -0.372061,-4.476855 -2.470755,-4.952688 -2.218863,-0.664736 -4.663976,1.256274 -4.579594,3.559611 -0.03067,1.350568 0.797944,2.534587 1.920246,3.215852 z"/>

<path opacity="0.15" fill="#000000" d="m 13,3 c 1.333333,0 2.666667,0 4,0 0,2.3333333 0,4.6666667 0,7 -1.333333,0 -2.666667,0 -4,0 0,-2.3333333 0,-4.6666667 0,-7 z"/>

<path opacity="0.15" fill="#000000" d="m 13,20 c 1.333333,0 2.666667,0 4,0 0,2.333333 0,4.666667 0,7 -1.333333,0 -2.666667,0 -4,0 0,-2.333333 0,-4.666667 0,-7 z"/>

<path opacity="0.15" fill="#000000" d="m 20,14.999999 c -0.02334,2.782423 -2.156955,4.626937 -4.114917,4.921905 -2.217306,0.416835 -4.901184,-0.763201 -5.72767,-3.672326 -0.6285918,-2.274973 0.645886,-4.658139 2.249905,-5.525712 2.349543,-1.4105388 5.592899,-0.7981711 7.099627,2.108426 0.313471,0.645669 0.495183,1.402676 0.493055,2.167707 z"/>

<path opacity="0.15" fill="#000000" d="M 5.100505,7.9289321 C 6.0433141,6.9861231 6.9861231,6.0433141 7.9289321,5.100505 9.5788482,6.750421 11.228764,8.4003366 12.878679,10.050252 11.93587,10.993061 10.993061,11.93587 10.050252,12.878679 8.4003366,11.228764 6.750421,9.5788482 5.100505,7.9289321 z"/>

<path opacity="0.15" fill="#000000" d="m 17.12132,19.949747 c 0.942809,-0.942809 1.885618,-1.885618 2.828427,-2.828427 1.649916,1.649916 3.299832,3.299832 4.949748,4.949747 -0.942809,0.94281 -1.885618,1.885619 -2.828428,2.828428 -1.649915,-1.649916 -3.299831,-3.299832 -4.949747,-4.949748 z"/>

<path opacity="0.15" fill="#000000" d="m 3,17 c 0,-1.333333 0,-2.666667 0,-4 2.3333333,0 4.6666667,0 7,0 0,1.333333 0,2.666667 0,4 -2.3333333,0 -4.6666667,0 -7,0 z"/>

<path opacity="0.15" fill="#000000" d="m 20,17 c 0,-1.333333 0,-2.666667 0,-4 2.333333,0 4.666667,0 7,0 0,1.333333 0,2.666667 0,4 -2.333333,0 -4.666667,0 -7,0 z"/>

<path opacity="0.15" fill="#000000" d="M 7.9289319,24.899495 C 6.9861231,23.956686 6.0433136,23.013876 5.1005047,22.071067 6.7504205,20.421152 8.4003364,18.771236 10.050252,17.12132 c 0.942809,0.942809 1.885619,1.885618 2.828427,2.828427 -1.649915,1.649916 -3.2998313,3.299832 -4.9497471,4.949748 z"/>

<path opacity="0.15" fill="#000000" d="m 19.949747,12.878679 c -0.942809,-0.942808 -1.885618,-1.885618 -2.828427,-2.828427 1.649916,-1.6499156 3.299832,-3.2998315 4.949747,-4.9497473 0.942809,0.9428089 1.885619,1.8856184 2.828428,2.8284272 -1.649916,1.6499158 -3.299832,3.2998321 -4.949748,4.9497471 z"/>

<path opacity="0.3" fill="#000000" d="m 14,3.0856306 c 0.666667,0 1.333333,0 2,0 0,1.6666667 0,3.3333333 0,5 -0.666667,0 -1.333333,0 -2,0 0,-1.6666667 0,-3.3333333 0,-5 z"/>

<path opacity="0.3" fill="#000000" d="m 14,20.085639 c 0.666667,0 1.333333,0 2,0 0,1.666667 0,3.333333 0,5 -0.666667,0 -1.333333,0 -2,0 0,-1.666667 0,-3.333333 0,-5 z"/>

<path opacity="0.3" fill="#000000" d="m 19,14.085639 c 0.07663,2.365117 -2.282899,4.389 -4.609161,3.953911 -2.342982,-0.285803 -3.98355,-2.911938 -3.211007,-5.143389 0.631056,-2.270354 3.462645,-3.5042928 5.554333,-2.416079 1.363895,0.642123 2.283336,2.096034 2.265835,3.605557 z"/>

<path opacity="0.3" fill="#000000" d="M 6.5147183,6.9274798 C 6.9861228,6.4560751 7.4575274,5.9846705 7.9289319,5.5132658 9.1074433,6.6917773 10.285955,7.8702887 11.464466,9.0488002 10.993061,9.5202078 10.521657,9.9916154 10.050252,10.463023 8.8717408,9.2845086 7.6932295,8.1059942 6.5147183,6.9274798 z"/>

<path opacity="0.3" fill="#000000" d="m 18.535534,19.035386 c 0.471404,-0.471404 0.942809,-0.942809 1.414213,-1.414213 1.178511,1.178511 2.357023,2.357022 3.535534,3.535533 -0.471405,0.471405 -0.942809,0.942809 -1.414214,1.414214 -1.178511,-1.178511 -2.357022,-2.357023 -3.535533,-3.535534 z"/>

<path opacity="0.3" fill="#000000" d="m 4,15.085639 c 0,-0.666667 0,-1.333333 0,-2 1.6666667,0 3.3333333,0 5,0 0,0.666667 0,1.333333 0,2 -1.6666667,0 -3.3333333,0 -5,0 z"/>

<path opacity="0.3" fill="#000000" d="m 21,15.085639 c 0,-0.666667 0,-1.333333 0,-2 1.666667,0 3.333333,0 5,0 0,0.666667 0,1.333333 0,2 -1.666667,0 -3.333333,0 -5,0 z"/>

<path opacity="0.3" fill="#000000" d="M 7.9289319,22.57092 C 7.4575274,22.099515 6.9861228,21.628111 6.5147183,21.156706 c 1.1785112,-1.178511 2.3570225,-2.357022 3.5355337,-3.535533 0.471405,0.471404 0.942809,0.942809 1.414214,1.414213 -1.178511,1.178511 -2.3570227,2.357023 -3.5355341,3.535534 z"/>

<path opacity="0.3" fill="#000000" d="m 19.949747,10.550105 c -0.471404,-0.471407 -0.942809,-0.9428147 -1.414213,-1.414222 1.178511,-1.1785115 2.357022,-2.3570229 3.535533,-3.5355344 0.471405,0.4714047 0.942809,0.9428093 1.414214,1.414214 -1.178511,1.1785141 -2.357023,2.3570283 -3.535534,3.5355424 z"/>

<path fill="#ffffff" d="m 14,4 c 0.666667,0 1.333333,0 2,0 0,1.6666667 0,3.3333333 0,5 -0.666667,0 -1.333333,0 -2,0 0,-1.6666667 0,-3.3333333 0,-5 z"/>

<path fill="#ffffff" d="m 14,21 c 0.666667,0 1.333333,0 2,0 0,1.666667 0,3.333333 0,5 -0.666667,0 -1.333333,0 -2,0 0,-1.666667 0,-3.333333 0,-5 z"/>

<path fill="#ffffff" d="M 6.5147183,8.0160146 C 6.9861228,7.5446101 7.4575274,7.0732056 7.9289319,6.6018011 9.1074433,7.7803124 10.285955,8.9588237 11.464466,10.137335 10.993061,10.608739 10.521657,11.080144 10.050252,11.551548 8.8717408,10.373037 7.6932295,9.1945257 6.5147183,8.0160146 z"/>

<path fill="#ffffff" d="m 18.535534,19.949747 c 0.471404,-0.471404 0.942809,-0.942809 1.414213,-1.414213 1.178512,1.178511 2.357022,2.357022 3.535534,3.535533 -0.471404,0.471405 -0.942809,0.94281 -1.414214,1.414214 -1.178511,-1.178512 -2.357022,-2.357022 -3.535533,-3.535534 z"/>

<path fill="#ffffff" d="m 4,16 c 0,-0.666667 0,-1.333333 0,-2 1.6666667,0 3.3333333,0 5,0 0,0.666667 0,1.333333 0,2 -1.6666667,0 -3.3333333,0 -5,0 z"/>

<path fill="#ffffff" d="m 21,16 c 0,-0.666667 0,-1.333333 0,-2 1.666667,0 3.333333,0 5,0 0,0.666667 0,1.333333 0,2 -1.666667,0 -3.333333,0 -5,0 z"/>

<path fill="#ffffff" d="M 7.9289319,23.485281 C 7.4575271,23.013876 6.9861231,22.542472 6.5147183,22.071067 c 1.1785113,-1.178511 2.3570226,-2.357022 3.5355337,-3.535533 0.471405,0.471404 0.942809,0.942808 1.414214,1.414213 -1.178512,1.178511 -2.3570228,2.357023 -3.5355341,3.535534 z"/>

<path fill="#ffffff" d="m 19.949747,11.464466 c -0.471405,-0.471405 -0.942809,-0.942809 -1.414213,-1.414214 1.178511,-1.1785111 2.357022,-2.3570224 3.535533,-3.5355337 0.471405,0.4714048 0.942809,0.9428088 1.414214,1.4142136 -1.178511,1.1785113 -2.357023,2.3570221 -3.535534,3.5355341 z"/>

<path fill="#ffffff" d="m 19,15 c 0.07663,2.365116 -2.282899,4.389001 -4.609161,3.953911 -2.342982,-0.285804 -3.98355,-2.911937 -3.211007,-5.143388 0.631056,-2.270355 3.462645,-3.504294 5.554334,-2.41608 C 18.099192,12.038084 19.016621,13.488776 19,15 z"/>
</g>
</svg>
